<?xml version="1.0" encoding="UTF-8"?>
<svg version="1.1" xmlns="http://www.w3.org/2000/svg" width="480" height="480">
<path d="M0 0 C0.96943542 0.00087616 1.93887085 0.00175232 2.93768311 0.00265503 C18.85367977 0.0499802 34.15883297 0.91222964 49.75 4.375 C50.81734375 4.61105957 51.8846875 4.84711914 52.984375 5.09033203 C83.556288 12.11299747 113.34710863 24.83936188 138.75 43.375 C139.31364258 43.78459961 139.87728516 44.19419922 140.45800781 44.61621094 C147.41887748 49.72031743 153.95161888 55.20136282 160.2734375 61.0859375 C162.36682183 63.02083216 164.50082207 64.86076906 166.6875 66.6875 C193.51890585 90.19224781 212.48733723 123.28471925 224.75 156.375 C224.99733887 157.03709473 225.24467773 157.69918945 225.49951172 158.38134766 C246.4794122 215.33107037 242.94550044 281.00499476 217.81225586 336.0012207 C216.80902482 338.13481199 215.78568174 340.25698418 214.75 342.375 C214.40888184 343.07641113 214.06776367 343.77782227 213.71630859 344.50048828 C202.73158406 366.8024977 187.93518135 386.50628476 170.75 404.375 C170.04593018 405.11194092 170.04593018 405.11194092 169.32763672 405.86376953 C162.87492599 412.58769752 156.1250314 418.68182373 148.75 424.375 C148.21455566 424.79217285 147.67911133 425.2093457 147.12744141 425.63916016 C96.89958647 464.53872413 33.10388611 481.54082963 -29.85742188 473.78955078 C-46.02238574 471.58951207 -61.84366054 467.7230479 -77.25 462.375 C-77.89598145 462.15231445 -78.54196289 461.92962891 -79.20751953 461.70019531 C-116.86445538 448.55780421 -154.07187646 424.71021925 -179.25 393.375 C-180.15847227 392.27832936 -181.06736912 391.18201038 -181.9765625 390.0859375 C-208.19885864 358.19395571 -224.49577129 321.58955166 -233.25 281.375 C-233.4464209 280.48635254 -233.6428418 279.59770508 -233.84521484 278.68212891 C-239.73113423 250.4916729 -238.43758286 217.37419374 -232.25 189.375 C-232.06808105 188.50697754 -231.88616211 187.63895508 -231.69873047 186.74462891 C-224.06875633 150.87215887 -207.9894481 118.01869885 -185.25 89.375 C-184.8178418 88.82569824 -184.38568359 88.27639648 -183.94042969 87.71044922 C-172.36687601 73.12024115 -158.96200276 59.56604022 -143.90478516 48.58544922 C-142.25755869 47.38052907 -140.63428859 46.14800818 -139.01171875 44.91015625 C-108.9400758 22.31626902 -73.16398404 8.56535744 -36.25 2.375 C-35.16138672 2.18953613 -34.07277344 2.00407227 -32.95117188 1.81298828 C-21.97013099 0.13591106 -11.08924066 -0.02451852 0 0 Z " fill="#FEFEFE" transform="translate(239.25,2.625)"/>
<path d="M0 0 C17.51504498 10.82588207 32.15474419 28.99030137 46.62133789 43.4909668 C49.09189645 45.96728543 51.5670086 48.43899692 54.04341221 50.90946865 C56.44935353 53.31090454 58.85145426 55.71616701 61.25390625 58.12109375 C62.13003067 58.99519394 63.00615509 59.86929413 63.90882874 60.7698822 C68.80949174 65.68918513 73.48406147 70.72695712 78 76 C80.35207277 78.60827434 82.71524246 81.20586824 85.08203125 83.80078125 C89.01409309 88.30943871 89.01409309 88.30943871 88.9375 92.0625 C87.39324242 100.29854042 82.40328766 107.03762881 77.54882812 113.66186523 C73.03206959 119.85799304 68.79807781 126.23477071 64.5625 132.625 C58.07004823 142.40880001 51.53334633 152.16056702 44.9375 161.875 C44.55248322 162.44261047 44.16746643 163.01022095 43.77078247 163.59503174 C40.38344836 168.58776288 36.99256465 173.57767004 33.54956055 178.53222656 C32.94302391 179.4051384 32.94302391 179.4051384 32.32423401 180.29568481 C31.20226039 181.90801268 30.07801143 183.51875653 28.95361328 185.12939453 C23.23065581 192.87808962 23.23065581 192.87808962 22 202 C23.74266147 204.53014729 23.74266147 204.53014729 26.125 206.875 C26.94355469 207.74125 27.76210937 208.6075 28.60546875 209.5 C29.39566406 210.325 30.18585938 211.15 31 212 C32.15748231 213.28123828 33.30527119 214.57139165 34.4375 215.875 C34.88996094 216.38804687 35.34242188 216.90109375 35.80859375 217.4296875 C38.91892574 221.52920705 39.63317544 224.84414285 39 230 C36.54905772 232.98087575 34.20472002 234.86351998 31 237 C26.02154851 236.91561947 23.25244054 233.91294497 19.875 230.625 C19.31022949 230.08987793 18.74545898 229.55475586 18.16357422 229.00341797 C13.49682072 224.55646111 8.95787409 219.98178114 4.4296875 215.39453125 C2.43014749 213.42392349 0.41354268 211.59622075 -1.75 209.8125 C-4.25241266 207.74399737 -6.33552615 205.53763325 -8.4375 203.0625 C-11.25958887 199.7493428 -14.24805038 196.98230873 -17.5703125 194.18359375 C-20.19320145 191.82636719 -22.63863062 189.34324505 -25.09960938 186.81933594 C-33.97152713 176.71498008 -33.97152713 176.71498008 -45.74609375 171.8671875 C-46.48988281 171.91101563 -47.23367187 171.95484375 -48 172 C-50.08480292 176.85161658 -50.08480292 176.85161658 -51 182 C-49.43484532 184.73797212 -49.43484532 184.73797212 -47.0625 187.3125 C-46.23105469 188.27671875 -45.39960938 189.2409375 -44.54296875 190.234375 C-42.37902672 192.58778661 -40.1727267 194.84151467 -37.875 197.0625 C-26.78966668 207.94749597 -26.78966668 207.94749597 -26.1875 215.1875 C-27.22875031 220.07336686 -29.03129933 222.96189121 -33 226 C-35.8125 226.8125 -35.8125 226.8125 -39 226 C-42.93585786 223.78822647 -46.60114002 221.25674472 -49.9609375 218.23828125 C-51.94020032 216.79814332 -51.94020032 216.79814332 -54.37109375 216.98046875 C-57.95230288 218.36931806 -60.35633326 220.67618573 -63.0625 223.3125 C-63.6188916 223.84359375 -64.1752832 224.3746875 -64.74853516 224.921875 C-65.91412127 226.03915517 -67.07518887 227.16116629 -68.23193359 228.28759766 C-69.98655728 229.9869805 -71.76576481 231.65685225 -73.55078125 233.32421875 C-74.65999825 234.38161364 -75.76811353 235.44016574 -76.875 236.5 C-77.40488525 236.99153564 -77.93477051 237.48307129 -78.48071289 237.98950195 C-80.1144729 239.52896819 -80.1144729 239.52896819 -82 242 C-81.67560252 245.19418902 -80.54449162 246.82007128 -78.27734375 249.015625 C-77.73916016 249.54414063 -77.20097656 250.07265625 -76.64648438 250.6171875 C-76.08251953 251.15601563 -75.51855469 251.69484375 -74.9375 252.25 C-74.08575195 253.08144531 -74.08575195 253.08144531 -73.21679688 253.9296875 C-71.81787531 255.29334214 -70.40980886 256.64760417 -69 258 C-66.0595778 256.67196404 -63.9693314 255.21766762 -61.6796875 252.953125 C-61.06657715 252.35790039 -60.4534668 251.76267578 -59.82177734 251.14941406 C-59.17934082 250.52260742 -58.5369043 249.89580078 -57.875 249.25 C-52.34933021 243.97226834 -46.9723618 239.29602558 -40 236 C-39.27039063 235.63519531 -38.54078125 235.27039063 -37.7890625 234.89453125 C-29.90958999 232.3673615 -20.00649651 232.67690518 -12.21484375 235.25 C-4.83896806 239.04782872 1.16740239 244.17266172 7 250 C7.7204248 250.71349609 8.44084961 251.42699219 9.18310547 252.16210938 C14.48296299 257.4142013 19.75193809 262.69618065 25 268 C29.08663421 266.3837447 31.78950866 263.44804688 34.796875 260.36328125 C35.34933899 259.80561569 35.90180298 259.24795013 36.4710083 258.67338562 C38.23550514 256.89112195 39.99318795 255.10233665 41.75 253.3125 C44.05385591 250.97184639 46.3609338 248.63443996 48.671875 246.30078125 C49.22813065 245.73889099 49.78438629 245.17700073 50.35749817 244.5980835 C53.87531584 241.06709244 57.49152694 237.71626984 61.29150391 234.48803711 C64.12247382 232.02236669 66.70100847 229.3186165 69.3125 226.625 C74.89121213 220.95554388 80.72505698 215.89727123 87 211 C87.825 210.30003906 88.65 209.60007813 89.5 208.87890625 C91.96218693 207.02841889 94.13882452 206.07741139 97 205 C96.97381592 203.89188965 96.94763184 202.7837793 96.9206543 201.64208984 C96.82898774 197.46375356 96.77233551 193.28550265 96.7253418 189.10644531 C96.70045907 187.31039401 96.6665397 185.5144411 96.62280273 183.71875 C96.09652059 161.52821818 102.92167671 148.2035713 118 132 C118.5671875 131.4225 119.134375 130.845 119.71875 130.25 C121.31135691 128.62843768 121.31135691 128.62843768 123 126 C122.86797378 122.63333126 122.06113102 120.18339307 121 117 C120.40417034 112.57383683 120.70685221 109.77400945 123.3125 106.1875 C127.56800734 101.79534792 132.15827838 101.73340391 138 101 C141.44614059 100.42010669 144.87912855 99.77580962 148.3125 99.125 C149.22338379 98.95564941 150.13426758 98.78629883 151.07275391 98.61181641 C157.58086259 97.36835471 163.79924227 95.73358591 170.08984375 93.63671875 C177.13308166 92.09571502 183.13994466 95.6175015 189.4375 98.4375 C199.08387319 102.7345825 207.2102939 105.28241925 217.77148438 105.47851562 C223.23630056 105.68018751 227.45917539 106.68247826 231.64453125 110.5 C234.87407775 114.647645 236.01770073 117.39575065 236.1875 122.5625 C237.18534899 134.52084896 242.5613334 146.26349532 247.01953125 157.30078125 C251.43993979 169.47011314 248.20117288 180.78618936 244.1015625 192.5859375 C242.37292257 197.7376268 241.84789472 202.23407967 241.6875 207.6875 C241.39029636 213.23343207 241.02505455 217.01343819 236.87109375 220.8984375 C232.22679471 223.63265948 227.52181072 223.37377807 222.4375 222.125 C218.49495556 221.98163475 218.13468332 222.32131349 215.3125 224.8125 C213.86946237 226.20260768 212.43262158 227.59916013 211 229 C201.12009378 237.92512537 191.70266632 243.0434318 179 247 C179.86102584 251.61101994 180.78053532 256.17592313 181.98828125 260.7109375 C185.02037888 272.14238981 185.76924453 283.19685766 186 295 C186.53109375 294.72285156 187.0621875 294.44570313 187.609375 294.16015625 C188.31578125 293.79792969 189.0221875 293.43570312 189.75 293.0625 C190.44609375 292.70285156 191.1421875 292.34320313 191.859375 291.97265625 C199.29801222 288.59269153 209.48641139 288.56311031 217.21484375 291.0234375 C225.77142492 295.36773257 232.82582263 302.47541733 236.37890625 311.4765625 C238.32734569 319.39286361 237.73745534 326.77350836 234 334 C224.29172314 347.56978415 211.19883611 359.07039098 199.39135742 370.80426025 C197.19396931 372.99078072 195.00223105 375.18291989 192.81057358 377.37518215 C190.67457217 379.51091002 188.53596296 381.64401053 186.396492 383.77626228 C185.38655945 384.7830506 184.37719809 385.79041227 183.36846161 386.79839897 C178.2873136 391.87162167 173.18590985 396.85476513 167.71002197 401.50282288 C165.89033542 403.09601474 164.19318193 404.77364722 162.5 406.5 C159.45852769 409.58285288 156.32402602 412.50243441 153.0078125 415.2890625 C150.99274477 416.95766822 150.99274477 416.95766822 149.2421875 418.7734375 C145.00638022 422.67918187 141.49801915 423.49804809 135.75 423.75 C125.49535342 423.33081704 117.36990654 418.96046729 110 412 C106.79361163 413.40680788 104.70818408 415.07577457 102.28515625 417.58984375 C101.25551758 418.64268555 101.25551758 418.64268555 100.20507812 419.71679688 C98.78052779 421.19329071 97.35604823 422.66985284 95.93164062 424.14648438 C88.0165495 432.23960941 88.0165495 432.23960941 82.64453125 433.59375 C78.30709248 432.6199085 75.78000508 429.56456426 72.6875 426.5 C71.68674438 425.53694946 71.68674438 425.53694946 70.66577148 424.55444336 C66.68419944 420.70884401 62.76124677 416.80282004 58.88391113 412.85217285 C57.11286209 411.1109607 55.28895831 409.49969186 53.39648438 407.89257812 C48.39638741 403.54302154 43.75575383 398.8625086 39.09375 394.15625 C37.68137068 392.7380835 36.26898839 391.31991993 34.85643768 389.90192413 C31.90687976 386.93933555 28.96193688 383.97215979 26.01617432 381.00579834 C23.58122894 378.55418969 21.14525184 376.10362669 18.70666504 373.65563965 C16.88779387 371.82931571 15.07117348 370.00074639 13.25720215 368.16955566 C12.4227356 367.33178589 11.58826904 366.49401611 10.72851562 365.63085938 C10.00651978 364.90362671 9.28452393 364.17639404 8.54064941 363.42712402 C6.47943595 361.45801302 4.38735508 359.58922366 2.23048401 357.72850037 C-2.17120825 353.90240443 -6.29927694 349.84143518 -10.41625977 345.71313477 C-11.21573029 344.91541656 -12.01520081 344.11769836 -12.83889771 343.29580688 C-15.45890712 340.68016858 -18.07527693 338.06092494 -20.69140625 335.44140625 C-22.52393749 333.60954941 -24.3566171 331.77784097 -26.18943787 329.9462738 C-30.02139298 326.11578924 -33.85159109 322.28356037 -37.68041992 318.44995117 C-42.08880385 314.03612643 -46.50077828 309.62591531 -50.91463429 305.21756321 C-55.18412916 300.95317655 -59.45077911 296.68595615 -63.71626091 292.41755486 C-65.52114516 290.61200613 -67.32676533 288.80719273 -69.1331501 287.00314522 C-71.66224712 284.47660323 -74.18809022 281.94685099 -76.71313477 279.41625977 C-77.82069878 278.3117321 -77.82069878 278.3117321 -78.95063782 277.18489075 C-82.9334773 273.18592501 -86.74711327 269.0984359 -90.41542721 264.80831051 C-93.1997533 261.63084453 -96.21266995 258.68459534 -99.21875 255.71875 C-99.88032104 255.06096558 -100.54189209 254.40318115 -101.22351074 253.72546387 C-103.31322735 251.64782726 -105.40617315 249.57349373 -107.5 247.5 C-110.263417 244.7634185 -113.02333722 242.02337737 -115.78125 239.28125 C-116.71124817 238.36369934 -116.71124817 238.36369934 -117.66003418 237.4276123 C-121.44474787 233.66382132 -125.01480938 229.77339744 -128.48487854 225.71717834 C-130.33110226 223.62474188 -132.35135972 221.78778037 -134.4375 219.9375 C-137.08522369 217.28461505 -137.92685417 216.28735863 -138.875 212.5625 C-135.51434029 198.87981405 -120.81883364 187.69782181 -111.12011719 178.24438477 C-110.35989258 177.49600342 -109.59966797 176.74762207 -108.81640625 175.9765625 C-108.13006104 175.30705566 -107.44371582 174.63754883 -106.73657227 173.94775391 C-103.02894176 169.78924468 -102.79895079 166.55878376 -102.6875 161.0625 C-102.25446015 153.34797523 -102.25446015 153.34797523 -99.5625 150.6875 C-95.72128034 148.15791632 -93.64954937 147.45625795 -89 148 C-86.64414911 149.64266526 -84.70405925 151.18983968 -82.625 153.125 C-81.48976164 154.13577971 -80.35304557 155.14490226 -79.21484375 156.15234375 C-78.66812012 156.64202637 -78.12139648 157.13170898 -77.55810547 157.63623047 C-74.52111262 160.29443198 -71.26421671 162.63184278 -68 165 C-67.71511719 164.4121875 -67.43023437 163.824375 -67.13671875 163.21875 C-66.11880707 161.23189834 -65.00053785 159.38713593 -63.8125 157.5 C-61.77550796 154.35489196 -61.77550796 154.35489196 -62.21484375 151.99609375 C-64.52165191 146.13152175 -70.30263146 141.68181077 -74.73681641 137.35375977 C-90.51287114 121.89703086 -90.51287114 121.89703086 -91.4375 114.5 C-87.62087765 105.20735428 -81.07491878 97.25641294 -75.18920898 89.18945312 C-71.11638242 83.59605058 -67.18819675 77.91884035 -63.3125 72.1875 C-58.85830535 65.61175452 -54.21795257 59.27035207 -49.31640625 53.0234375 C-46.99711248 49.99623113 -44.8322036 46.90283107 -42.6875 43.75 C-37.56955399 36.26783468 -32.08159861 29.08823652 -26.50878906 21.94042969 C-25.17983322 20.23128065 -23.86579953 18.51189233 -22.5546875 16.7890625 C-8.23422237 -1.53497352 -8.23422237 -1.53497352 0 0 Z " fill="#020202" transform="translate(185,24)"/>
<path d="M0 0 C3.26109804 1.65998131 6.09148768 3.79069598 9 6 C17.30022636 12.11235779 25.81180421 17.70275641 35.875 20.375 C41.14499124 22.05569991 43.40169939 25.25558923 46 30 C52.25294322 42.87284321 55.5956183 56.056721 51.9375 70.375 C48.78131968 78.93295825 41.71450788 85.58889316 35.5 92.0625 C34.06866032 93.56607305 32.63767816 95.06998651 31.20703125 96.57421875 C30.49498535 97.32106934 29.78293945 98.06791992 29.04931641 98.83740234 C27.20840897 100.78007069 25.38621058 102.73742861 23.57421875 104.70703125 C14.09572611 114.9884825 4.21692553 124.85129484 -5.72192383 134.68505859 C-6.29581345 135.25468323 -6.86970306 135.82430786 -7.46098328 136.41119385 C-8.53843898 137.48045788 -9.61796686 138.54763988 -10.70002747 139.61224365 C-14.0261777 142.91638308 -17.02396274 146.37751782 -20 150 C-21.17554692 151.09866516 -22.38175666 152.1660688 -23.625 153.1875 C-28.23729453 157.09696869 -32.3852376 161.397411 -36.58203125 165.7421875 C-39 168 -39 168 -42 169 C-56.3948142 156.1970829 -70.32335251 142.92695481 -83.99462891 129.35546875 C-85.6883019 127.67863016 -87.38735346 126.00720945 -89.09130859 124.34082031 C-91.58331595 121.90312049 -94.05888141 119.44978313 -96.53125 116.9921875 C-97.2986853 116.24742157 -98.06612061 115.50265564 -98.85681152 114.73532104 C-99.89545349 113.69240402 -99.89545349 113.69240402 -100.95507812 112.62841797 C-101.56935669 112.02222626 -102.18363525 111.41603455 -102.81652832 110.79147339 C-104 109 -104 109 -103.78346252 106.88766479 C-102.78758502 104.48821002 -101.47986077 103.14003235 -99.62109375 101.328125 C-98.94755859 100.66425781 -98.27402344 100.00039063 -97.58007812 99.31640625 C-96.87302734 98.63449219 -96.16597656 97.95257813 -95.4375 97.25 C-94.72658203 96.55261719 -94.01566406 95.85523438 -93.28320312 95.13671875 C-91.52869286 93.4175342 -89.76756648 91.70574128 -88 90 C-83.85160184 91.6242044 -81.12771324 94.65312381 -78.08984375 97.78515625 C-77.52229874 98.36027451 -76.95475372 98.93539276 -76.37001038 99.52793884 C-73.95420406 101.97617848 -71.55014945 104.43582614 -69.14575195 106.89526367 C-60.95193366 115.26023221 -52.7916874 123.4722084 -43 130 C-37.73278685 129.84126207 -35.3320641 127.97335254 -31.625 124.375 C-30.75101562 123.53710938 -29.87703125 122.69921875 -28.9765625 121.8359375 C-28.26560425 121.14757812 -28.26560425 121.14757812 -27.5402832 120.4453125 C-25.9096055 118.91517904 -24.22270033 117.47236507 -22.51953125 116.0234375 C-16.73170753 110.98953597 -11.34899333 105.53500945 -5.92797852 100.11328125 C-4.07522532 98.26271033 -2.21461294 96.42029924 -0.35351562 94.578125 C5.05201386 89.20297834 10.39499261 83.76230225 15.44140625 78.046875 C16.16142822 77.23573242 16.8814502 76.42458984 17.62329102 75.58886719 C19.52491879 72.01290321 18.98399158 69.85767202 18 66 C15.59124507 62.76538624 14.26056689 61.18589821 10.21875 60.58984375 C6.09931105 61.11477226 3.77331658 62.91068946 0.6875 65.5 C0.08993896 65.98557373 -0.50762207 66.47114746 -1.12329102 66.97143555 C-8.35083267 72.94903874 -15.09898302 79.46396864 -21.86425781 85.95263672 C-25.33162151 89.27651783 -28.81711127 92.58062955 -32.3125 95.875 C-32.92859131 96.46385986 -33.54468262 97.05271973 -34.17944336 97.65942383 C-34.75573486 98.20236084 -35.33202637 98.74529785 -35.92578125 99.3046875 C-36.67468628 100.0160083 -36.67468628 100.0160083 -37.4387207 100.74169922 C-39.18521979 102.14927644 -40.98644744 103.02482149 -43 104 C-47.3115742 99.73817768 -51.61629644 95.46958903 -55.91503906 91.19482422 C-57.37577822 89.74409013 -58.83831401 88.29516259 -60.30273438 86.84814453 C-62.41761288 84.75775713 -64.52576314 82.66077532 -66.6328125 80.5625 C-67.27993195 79.92570312 -67.92705139 79.28890625 -68.59378052 78.6328125 C-72.84774312 74.37988605 -76.51862039 69.90444811 -80 65 C-79.360625 64.649375 -78.72125 64.29875 -78.0625 63.9375 C-59.39448958 52.12712606 -44.18790699 34.29110156 -28.78857422 18.69262695 C-26.28788834 16.16181518 -23.78107272 13.63720473 -21.2734375 11.11328125 C-20.13592545 9.95557976 -20.13592545 9.95557976 -18.97543335 8.77449036 C-8.40106853 -1.8500548 -8.40106853 -1.8500548 0 0 Z " fill="#FCFCFC" transform="translate(296,250)"/>
<path d="M0 0 C4.49102874 1.41405684 7.29543983 3.86695467 10.53710938 7.14892578 C11.33082695 7.93475792 11.33082695 7.93475792 12.14057922 8.73646545 C13.88257659 10.46529302 15.61340767 12.20482545 17.34375 13.9453125 C18.55730137 15.15684137 19.77129764 16.36792474 20.98571777 17.57858276 C23.52907969 20.11752463 26.06694527 22.66180453 28.60107422 25.20996094 C31.83550137 28.46142473 35.08313645 31.69930661 38.33507538 34.93324471 C40.84567347 37.43294961 43.34901744 39.93982153 45.85029602 42.44884872 C47.04409643 43.64463872 48.24009709 44.83823659 49.43840027 46.02951431 C65.18464648 61.70369018 65.18464648 61.70369018 65.375 69.1875 C64.21933839 75.41110883 60.07894255 80.21794606 56.36523438 85.16503906 C53.99131537 88.35573563 51.72270678 91.6205093 49.4375 94.875 C48.41028425 96.32821549 47.38293548 97.78133695 46.35546875 99.234375 C42.63061374 104.51523842 38.93877278 109.81889385 35.25 115.125 C34.58379639 116.0830957 33.91759277 117.04119141 33.23120117 118.02832031 C29.67057695 123.15126358 26.11465772 128.2774328 22.5625 133.40625 C21.84030273 134.44765137 21.11810547 135.48905273 20.37402344 136.56201172 C18.99034104 138.55737716 17.60810594 140.55374724 16.22753906 142.55126953 C13.27284549 146.81012991 10.32658313 151.01818079 7 155 C3.56904454 153.52005112 1.34037395 151.58840187 -1.2902832 148.95263672 C-2.12827957 148.11771698 -2.96627594 147.28279724 -3.82966614 146.4225769 C-4.72763412 145.5174234 -5.62560211 144.6122699 -6.55078125 143.6796875 C-7.48294968 142.74706085 -8.4151181 141.8144342 -9.37553406 140.85354614 C-11.34974456 138.87777265 -13.32055661 136.89869156 -15.28881836 134.91699219 C-17.79173105 132.39719525 -20.30106912 129.88392438 -22.81281757 127.37293816 C-24.75984188 125.42563948 -26.70423009 123.475726 -28.64778709 121.52496719 C-30.01538206 120.15270743 -31.38441928 118.78188548 -32.75349426 117.41110229 C-37.17937312 112.95190423 -41.46073876 108.43069565 -45.55683899 103.66653442 C-47.21449612 101.75230403 -48.94719184 99.93801951 -50.74609375 98.15625 C-51.35517578 97.55039063 -51.96425781 96.94453125 -52.59179688 96.3203125 C-53.20087891 95.71960938 -53.80996094 95.11890625 -54.4375 94.5 C-55.39172852 93.55253906 -55.39172852 93.55253906 -56.36523438 92.5859375 C-57.90782806 91.05494226 -59.45357314 89.52712333 -61 88 C-57.35015299 78.09628266 -50.32954369 69.46098604 -44.3125 60.875 C-43.26485474 59.3751355 -43.26485474 59.3751355 -42.19604492 57.8449707 C-40.13356473 54.89462571 -38.067464 51.94685407 -36 49 C-35.44054687 48.20158691 -34.88109375 47.40317383 -34.3046875 46.58056641 C-5.50115144 5.50115144 -5.50115144 5.50115144 0 0 Z " fill="#FDFDFD" transform="translate(181,52)"/>
<path d="M0 0 C2.4921875 1.72265625 2.4921875 1.72265625 4.875 4.0625 C7.72811049 6.81674033 10.58168323 9.51893732 13.5925293 12.09863281 C18.33948892 16.24060959 22.81210979 20.63245193 27.27734375 25.07421875 C28.12929825 25.92047318 28.98125275 26.7667276 29.85902405 27.6386261 C31.64446076 29.41467608 33.42849423 31.19213773 35.21118164 32.97094727 C37.94686891 35.69683536 40.6930359 38.41188154 43.43945312 41.12695312 C45.17773917 42.85871694 46.9153922 44.59111644 48.65234375 46.32421875 C49.47516342 47.13469162 50.29798309 47.94516449 51.14573669 48.78019714 C51.90064896 49.5381105 52.65556122 50.29602386 53.43334961 51.0769043 C54.09983017 51.73973923 54.76631073 52.40257416 55.45298767 53.085495 C57.10136051 55.12543869 57.70921691 56.40763203 58 59 C52.95612152 69.59972958 43.83098908 76.44435596 33.0546875 80.421875 C19.94942278 84.10928789 7.19160564 82.57491436 -5 77 C-15.14804237 70.94058919 -22.25460412 61.94876352 -26.08203125 50.8671875 C-28.37082409 41.22503892 -28.91933609 28.17767916 -24.38671875 19.16015625 C-19.11209177 10.94362464 -11.05880931 -1.58186576 0 0 Z " fill="#FCFCFC" transform="translate(330,168)"/>
<path d="M0 0 C2.16675887 2.24165918 2.21258456 3.9422518 2.51953125 7.01171875 C3.2836136 12.09219615 4.33217132 14.47403229 8.58203125 17.63671875 C9.69578125 18.50296875 9.69578125 18.50296875 10.83203125 19.38671875 C14.10716948 20.87541795 16.83012588 20.99805076 20.3984375 21.03515625 C23.70287191 21.94550133 24.70810583 23.83549003 26.58203125 26.63671875 C31.73258999 36.49055086 33.45360211 46.33518263 30.671875 57.1875 C29.73287076 60.0516312 28.7257707 62.84885383 27.58203125 65.63671875 C23.80936509 64.04636767 21.24519671 61.66894538 18.26953125 58.88671875 C17.74883057 58.40138672 17.22812988 57.91605469 16.69165039 57.41601562 C15.56687441 56.36699832 14.44380237 55.31615163 13.32226562 54.26367188 C11.6003119 52.65380941 9.866499 51.05779998 8.12890625 49.46484375 C0.79330946 42.71653643 -6.35858205 35.79851651 -13.41796875 28.76171875 C-14.20695557 27.97732422 -14.99594238 27.19292969 -15.80883789 26.38476562 C-19.96560845 22.21694805 -23.96095429 17.96829647 -27.80126953 13.50732422 C-30.25999017 10.66245597 -32.80658607 7.90065239 -35.35546875 5.13671875 C-35.84853516 4.60046875 -36.34160156 4.06421875 -36.84960938 3.51171875 C-38.03820614 2.21926401 -39.22795698 0.92787076 -40.41796875 -0.36328125 C-39.41796875 -3.36328125 -39.41796875 -3.36328125 -37.265625 -4.53125 C-23.57255942 -9.54371861 -12.5655527 -7.08461695 0 0 Z " fill="#FAFAFA" transform="translate(380.41796875,147.36328125)"/>
<path d="M0 0 C2 1.125 2 1.125 3 3 C3.86112672 7.01859134 2.94879347 9.54924051 0.875 12.9375 C-2.11326157 17.02790951 -5.39791521 20.72832916 -8.85546875 24.41796875 C-9.45418289 25.05767609 -10.05289703 25.69738342 -10.66975403 26.35647583 C-19.02374248 35.21817889 -27.6389443 43.82610695 -36.25073242 52.43603516 C-38.70945156 54.89465193 -41.16116014 57.36013729 -43.61126232 59.82733727 C-46.00060416 62.23059919 -48.39724851 64.62653414 -50.79296875 67.0234375 C-51.65472214 67.8923764 -52.51647552 68.76131531 -53.40434265 69.65658569 C-59.29033152 75.52088439 -65.46099289 80.87459445 -72 86 C-72.69453781 86.56721771 -73.38907562 87.13443542 -74.10466003 87.71884155 C-77.18975628 89.80421789 -79.39212387 89.56966465 -83 89 C-85.12012918 87.17138858 -86.39225243 85.33854192 -88 83 C-85.06212323 74.64634028 -78.47459358 68.1837497 -72.15234375 62.1796875 C-70.3215088 60.3255933 -68.64325544 58.43584142 -66.95117188 56.45776367 C-62.71176943 51.59889875 -58.19257677 47.04870883 -53.62890625 42.49609375 C-52.74774643 41.6139772 -51.86658661 40.73186066 -50.95872498 39.82301331 C-48.6342325 37.49767191 -46.30734093 35.17476382 -43.97961426 32.85266113 C-42.56355322 31.43855176 -41.14945679 30.02250879 -39.73608398 28.60571289 C-36.99471744 25.8581328 -34.24986966 23.11407894 -31.50390625 20.37109375 C-30.67033096 19.53549423 -29.83675568 18.69989471 -28.97792053 17.838974 C-9.9247469 -1.13890538 -9.9247469 -1.13890538 0 0 Z " fill="#FAFAFA" transform="translate(397,336)"/>
<path d="M0 0 C8.14607902 2.85421329 14.25012945 10.69589498 20.0625 16.72265625 C14.95801178 22.90400494 9.37955058 28.52088503 3.6875 34.16015625 C2.76066406 35.08248047 1.83382812 36.00480469 0.87890625 36.95507812 C-1.39095846 39.2132425 -3.66313538 41.46902567 -5.9375 43.72265625 C-9.24620306 42.29299236 -11.28594539 40.55323559 -13.72265625 37.9140625 C-14.41810547 37.16705078 -15.11355469 36.42003906 -15.83007812 35.65039062 C-16.54615234 34.86986328 -17.26222656 34.08933594 -18 33.28515625 C-19.42810996 31.74453628 -20.85648508 30.20416206 -22.28515625 28.6640625 C-22.91429932 27.98029541 -23.54344238 27.29652832 -24.19165039 26.59204102 C-25.74137234 24.93266177 -27.32074485 23.31644349 -28.9375 21.72265625 C-27.58612257 18.67832624 -26.1035976 16.67561877 -23.671875 14.41015625 C-23.02863281 13.80945313 -22.38539063 13.20875 -21.72265625 12.58984375 C-21.05105469 11.97367187 -20.37945312 11.3575 -19.6875 10.72265625 C-19.03136719 10.10648437 -18.37523437 9.4903125 -17.69921875 8.85546875 C-6.72465835 -1.31181782 -6.72465835 -1.31181782 0 0 Z " fill="#FBFBFB" transform="translate(170.9375,286.27734375)"/>
<path d="M0 0 C2.30956919 0.92724221 3.51977759 1.96912091 5.24902344 3.75024414 C5.82265625 4.33354492 6.39628906 4.9168457 6.98730469 5.51782227 C7.86708984 6.4353125 7.86708984 6.4353125 8.76464844 7.37133789 C9.36664063 7.98686523 9.96863281 8.60239258 10.58886719 9.23657227 C12.07099225 10.75398602 13.54374514 12.28054385 15.01464844 13.80883789 C9.4881451 20.54964214 3.32015285 26.61595079 -2.86035156 32.74633789 C-3.9413143 33.82227516 -5.02204539 34.8984452 -6.10253906 35.97485352 C-8.72747797 38.58887081 -11.35553785 41.19972385 -13.98535156 43.80883789 C-17.49159429 42.15528902 -19.84984112 40.24299962 -22.61035156 37.49633789 C-23.38636719 36.73708008 -24.16238281 35.97782227 -24.96191406 35.19555664 C-27.00142868 32.78987435 -28.00564898 30.78481615 -28.98535156 27.80883789 C-28.25832031 27.0212207 -27.53128906 26.23360352 -26.78222656 25.42211914 C-26.06184204 24.64155151 -26.06184204 24.64155151 -25.3269043 23.84521484 C-24.25650812 22.68582424 -23.1857002 21.52681365 -22.11450195 20.36816406 C-19.2740104 17.29459377 -16.44062129 14.21505084 -13.62207031 11.12133789 C-12.81721191 10.24094849 -12.81721191 10.24094849 -11.99609375 9.34277344 C-10.96425707 8.21374171 -9.9348697 7.08246559 -8.90820312 5.94873047 C-3.17969855 -0.30616133 -3.17969855 -0.30616133 0 0 Z " fill="#FBFBFB" transform="translate(100.9853515625,208.191162109375)"/>
</svg>
